<svg xmlns="http://www.w3.org/2000/svg" xmlns:xlink="http://www.w3.org/1999/xlink" fill="none" version="1.1" width="256" height="256" viewBox="0 0 256 256"><defs><clipPath id="master_svg0_297_6451"><rect x="0" y="0" width="256" height="256" rx="0"/></clipPath></defs><g clip-path="url(#master_svg0_297_6451)"><g><path d="M211.333788046875,83.955410015625Q211.199558046875,95.421944015625,209.133348046875,104.488907015625Q207.067088046875,113.555847015625,203.266938046875,120.822845015625Q199.466748046875,128.088696015625,194.066868046875,133.889086015625Q188.666978046875,139.689466015625,181.733348046875,144.755986015625Q168.399748046875,154.355426015625,152.533428046875,159.222836015625Q136.66678604687502,164.089146015625,120.666786046875,164.089146015625Q118.000046046875,164.089146015625,115.400108046875,163.955996015625Q112.800064046875,163.822876015625,110.133461046875,163.555496015625L105.733433046875,212.222806015625L103.466755046875,216.355236015625Q103.20005404687501,216.888806015625,98.933384046875,218.488586015625Q94.666717046875,220.089446015625,88.26671604687499,222.222776015625L79.866745046875,225.022826015625Q75.866760046875,226.489436015625,72.800119046875,227.688646015625Q69.733463046875,228.889006015625,67.06674204687499,229.821986015625Q64.400127046875,230.756116015625,61.866749046875,231.222546015625Q59.333372046875,231.689056015625,56.533418046875,231.689056015625Q54.666783046875,231.689056015625,53.600116046875,230.756116015625Q52.533449146875,229.821986015625,52.533449146875,227.156146015625L54.000039046875,204.355086015625Q54.400083046875,197.555736015625,55.000030046875,190.689236015625Q55.600094046875,183.822766015625,56.133373046875,175.022046015625L58.666748046875,143.155146015625Q59.466717046875004,133.422596015625,60.133461046875,123.688904015625Q60.800085046875,113.955200015625,61.466707046875,105.155632015625Q62.133448046875,96.356049015625,62.666716046874996,88.68856801562501Q63.200117046875,81.02222101562501,63.600040046875,75.288963015625Q56.400073046875,76.88867601562501,52.066727646875,77.622543015625Q47.733382246875,78.355267015625,45.466704646875,78.355267015625Q42.666748046875,78.355267015625,42.666748046875,75.95570801562499Q44.533382546875,69.422573015625,46.133447846875,63.155697015625Q47.600039046875,57.821789015625,49.133426646875,52.155655015625Q50.666803346875,46.488388015625,51.733361246875,42.622210015625Q52.400094046875,40.222643015624996,53.266739046875,38.955152015625Q54.133385046875,37.688809015625,55.533427046875,36.956085015625Q56.933461046874996,36.222207015625,59.133472046875,35.622598015625Q61.333473046875,35.021860015625,64.533363046875,33.955758115625Q67.06674204687499,33.155899015624996,71.666775046875,32.155790815625Q76.266804046875,31.155692615625,82.20009604687499,30.155583415625Q88.133377046875,29.155474615625,95.06676504687499,28.222271915625Q102.000053046875,27.288949015625,109.133461046875,26.555648115625Q116.266762046875,25.822238745625,123.200157046875,25.355637045625Q130.133423046875,24.888916015625,136.266746046875,24.888916015625Q151.466208046875,24.888916015625,165.067198046875,27.688992715624998Q178.667068046875,30.488949315625,188.933228046875,37.222318015625Q199.200528046875,43.955696015625,205.267168046875,55.355087015625Q211.333788046875,66.755630015625,211.333788046875,83.955410015625ZM113.866730046875,123.955139015625Q113.866730046875,125.422876015625,114.400124046875,126.556096015625Q114.933395046875,127.689316015625,117.333427046875,127.689316015625Q121.066833046875,127.689316015625,126.200134046875,126.022486015625Q131.333443046875,124.355637015625,136.466766046875,121.021950015625Q141.60052504687502,117.689400015625,146.000308046875,112.755981015625Q150.400098046875,107.822578015625,152.666548046875,101.155205015625Q153.600658046875,98.489403015625,154.200268046875,94.355858015625Q154.799878046875,90.222305015625,154.799878046875,84.622154015625Q154.799878046875,75.288963015625,148.33388804687502,70.88917901562499Q141.866768046875,66.489380015625,131.466774046875,66.489380015625Q129.73337604687498,66.489380015625,127.533379046875,66.688492015625Q125.333488046875,66.88874401562501,123.400055046875,67.422367015625Q121.466736046875,67.95597801562499,120.133377046875,68.688705015625Q118.800133046875,69.422573015625,118.666786046875,70.621792015625L118.400085046875,73.556122015625Q118.266746046875,75.288963015625,117.866684046875,79.222260015625Q117.466774046875,83.155552015625,117.000046046875,88.222080015625Q116.533440046875,93.288605015625,116.066742046875,98.888748015625Q115.600143046875,104.488907015625,115.133408046875,109.555420015625Q114.666817046875,114.621956015625,114.333443046875,118.489250015625Q114.000076046875,122.355415015625,113.866730046875,123.955139015625Z" fill="#0090F0" fill-opacity="1"/></g></g></svg>